<svg width="17" height="20" viewBox="0 0 17 20" fill="none" xmlns="http://www.w3.org/2000/svg">
<path d="M11.491 1.471L11.784 3.5H15.75C15.9489 3.5 16.1397 3.57902 16.2803 3.71967C16.421 3.86032 16.5 4.05109 16.5 4.25C16.5 4.44891 16.421 4.63968 16.2803 4.78033C16.1397 4.92098 15.9489 5 15.75 5H14.981L14.108 15.185C14.055 15.805 14.012 16.315 13.943 16.727C13.873 17.156 13.766 17.54 13.557 17.896C13.2288 18.4551 12.7409 18.9033 12.156 19.183C11.784 19.36 11.392 19.433 10.958 19.467C10.541 19.5 10.03 19.5 9.408 19.5H7.092C6.47 19.5 5.959 19.5 5.542 19.467C5.108 19.433 4.716 19.36 4.344 19.183C3.75908 18.9033 3.27118 18.4551 2.943 17.896C2.733 17.54 2.628 17.156 2.557 16.727C2.488 16.314 2.445 15.805 2.392 15.185L1.519 5H0.75C0.551088 5 0.360322 4.92098 0.21967 4.78033C0.0790175 4.63968 0 4.44891 0 4.25C0 4.05109 0.0790175 3.86032 0.21967 3.71967C0.360322 3.57902 0.551088 3.5 0.75 3.5H4.716L5.009 1.471L5.02 1.41C5.202 0.62 5.88 0 6.73 0H9.77C10.62 0 11.298 0.62 11.48 1.41L11.491 1.471ZM6.231 3.5H10.268L10.012 1.724C9.964 1.557 9.842 1.5 9.769 1.5H6.731C6.658 1.5 6.536 1.557 6.488 1.724L6.231 3.5ZM7.5 8.25C7.5 8.05109 7.42098 7.86032 7.28033 7.71967C7.13968 7.57902 6.94891 7.5 6.75 7.5C6.55109 7.5 6.36032 7.57902 6.21967 7.71967C6.07902 7.86032 6 8.05109 6 8.25V13.25C6 13.4489 6.07902 13.6397 6.21967 13.7803C6.36032 13.921 6.55109 14 6.75 14C6.94891 14 7.13968 13.921 7.28033 13.7803C7.42098 13.6397 7.5 13.4489 7.5 13.25V8.25ZM10.5 8.25C10.5 8.05109 10.421 7.86032 10.2803 7.71967C10.1397 7.57902 9.94891 7.5 9.75 7.5C9.55109 7.5 9.36032 7.57902 9.21967 7.71967C9.07902 7.86032 9 8.05109 9 8.25V13.25C9 13.4489 9.07902 13.6397 9.21967 13.7803C9.36032 13.921 9.55109 14 9.75 14C9.94891 14 10.1397 13.921 10.2803 13.7803C10.421 13.6397 10.5 13.4489 10.5 13.25V8.25Z" fill="#4D402B"/>
</svg>
