<svg width="31" height="27" viewBox="0 0 31 27" fill="none" xmlns="http://www.w3.org/2000/svg">
<path d="M1.44539 11.6952C0.968135 12.1746 0.700195 12.8235 0.700195 13.5C0.700195 14.1765 0.968135 14.8254 1.44539 15.3048L11.6537 25.5132C11.8907 25.7502 12.1721 25.9382 12.4818 26.0665C12.7915 26.1947 13.1234 26.2607 13.4586 26.2607C14.1355 26.2607 14.7847 25.9918 15.2634 25.5132C15.7421 25.0345 16.011 24.3853 16.011 23.7083C16.011 23.0314 15.7421 22.3822 15.2634 21.9035L9.41198 16.0521H27.7502C28.4271 16.0521 29.0762 15.7832 29.5548 15.3046C30.0334 14.826 30.3023 14.1768 30.3023 13.5C30.3023 12.8231 30.0334 12.174 29.5548 11.6954C29.0762 11.2168 28.4271 10.9479 27.7502 10.9479L9.41198 10.9479L15.2634 5.09649C15.5004 4.85948 15.6884 4.57809 15.8167 4.26842C15.945 3.95875 16.011 3.62684 16.011 3.29165C16.011 2.95647 15.945 2.62456 15.8167 2.31489C15.6884 2.00521 15.5004 1.72383 15.2634 1.48682C15.0264 1.24981 14.745 1.06179 14.4353 0.933523C14.1257 0.805252 13.7937 0.739237 13.4586 0.739237C13.1234 0.739237 12.7915 0.805252 12.4818 0.933523C12.1721 1.06179 11.8907 1.24981 11.6537 1.48682L1.44539 11.6952Z" fill="#FDF2C5"/>
</svg>
