<svg width="23" height="23" viewBox="0 0 23 23" fill="none" xmlns="http://www.w3.org/2000/svg">
<path d="M11.4997 0.927094C12.5059 0.927094 13.3226 1.74376 13.3226 2.75001V9.67709H20.2497C20.7331 9.67709 21.1968 9.86915 21.5387 10.211C21.8805 10.5529 22.0726 11.0165 22.0726 11.5C22.0726 11.9835 21.8805 12.4471 21.5387 12.789C21.1968 13.1309 20.7331 13.3229 20.2497 13.3229H13.3226V20.25C13.3226 20.7335 13.1305 21.1971 12.7887 21.539C12.4468 21.8809 11.9831 22.0729 11.4997 22.0729C11.0162 22.0729 10.5525 21.8809 10.2107 21.539C9.86881 21.1971 9.67676 20.7335 9.67676 20.25V13.3229H2.74967C2.26621 13.3229 1.80254 13.1309 1.46068 12.789C1.11881 12.4471 0.926758 11.9835 0.926758 11.5C0.926758 11.0165 1.11881 10.5529 1.46068 10.211C1.80254 9.86915 2.26621 9.67709 2.74967 9.67709H9.67676V2.75001C9.67676 1.74376 10.4934 0.927094 11.4997 0.927094Z" fill="#FDF2C5"/>
</svg>
