<svg width="231" height="128" viewBox="0 0 231 128" fill="none" xmlns="http://www.w3.org/2000/svg">
<ellipse cx="55.082" cy="58.4484" rx="55.082" ry="58.4484" fill="#CDD8AC"/>
<path d="M58.08 127.52C57.3333 127.52 56.7267 127.38 56.26 127.1C55.8867 126.82 55.3733 126.68 54.72 126.68L54.58 126.82C54.58 126.82 54.4867 126.82 54.3 126.82C54.2067 126.913 53.88 126.82 53.32 126.54L52.2 126.12L52.06 126.26C52.06 126.353 52.0133 126.4 51.92 126.4C52.1067 126.4 51.7333 126.167 50.8 125.7C50.3333 125.7 49.7733 125.513 49.12 125.14L47.16 123.46C46.9733 123.367 46.6933 123.273 46.32 123.18C46.04 123.087 45.7133 122.993 45.34 122.9C44.8733 122.62 44.2667 122.2 43.52 121.64C42.8667 121.08 42.1667 120.333 41.42 119.4L41.28 118.42L40.58 117.44L40.3 115.48C40.2067 115.107 40.02 114.687 39.74 114.22C39.5533 113.66 39.3667 113.053 39.18 112.4C38.9 112.307 38.5267 111.933 38.06 111.28C37.5 109.973 37.22 109.087 37.22 108.62C37.22 108.527 37.3133 108.387 37.5 108.2C37.6867 107.92 37.8267 107.78 37.92 107.78C37.7333 107.5 37.2667 107.127 36.52 106.66L36.38 105.12C37.0333 104.653 37.4533 104.42 37.64 104.42H38.62C38.9 104.327 39.2267 104.233 39.6 104.14C39.9733 104.047 40.3933 103.953 40.86 103.86C41.3267 103.673 41.7 103.813 41.98 104.28C42.0733 104.653 42.3533 104.84 42.82 104.84C42.9133 104.84 43.1467 104.513 43.52 103.86L44.78 102.18C46.18 102.647 47.02 102.833 47.3 102.74L49.54 101.2H50.94V102.74L52.2 103.3L51.92 105.4C51.92 105.587 52.06 105.82 52.34 106.1C52.62 106.38 52.76 106.567 52.76 106.66C52.8533 106.753 52.8067 106.987 52.62 107.36L52.2 108.06C52.3867 108.807 52.8067 109.46 53.46 110.02C53.6467 110.02 54.02 110.113 54.58 110.3C54.58 110.673 54.72 111 55 111.28C55.3733 111.56 55.7467 111.607 56.12 111.42C56.12 111.42 56.2133 111.84 56.4 112.68C56.5867 113.147 56.7733 113.38 56.96 113.38C56.96 113.38 57.1467 113.287 57.52 113.1C57.7067 112.913 57.8933 112.82 58.08 112.82L58.78 112.96C58.9667 112.96 59.1067 113.007 59.2 113.1C59.2933 113.193 59.3867 113.24 59.48 113.24C59.5733 113.24 59.76 113.1 60.04 112.82C60.4133 112.633 60.6467 112.54 60.74 112.54C60.8333 112.447 61.16 112.493 61.72 112.68L62.56 112.96C62.56 112.96 62.7467 112.867 63.12 112.68L63.54 112.54C63.54 112.54 63.82 112.633 64.38 112.82C64.5667 112.633 64.66 112.447 64.66 112.26C64.66 111.513 64.8 110.533 65.08 109.32L66.34 109.18C66.8067 109.18 67.0867 108.993 67.18 108.62C67.0867 108.527 66.9467 108.387 66.76 108.2C66.5733 108.013 66.3867 107.827 66.2 107.64C66.1067 107.267 66.0133 106.893 65.92 106.52C65.8267 106.053 65.7333 105.587 65.64 105.12C65.64 104.84 65.78 104.56 66.06 104.28C66.34 104.187 66.5733 104.047 66.76 103.86C66.76 103.86 66.5733 103.907 66.2 104C65.7333 104 65.36 103.533 65.08 102.6L64.52 100.92C64.24 100.733 64.0067 100.5 63.82 100.22C63.4467 99.8467 63.26 99.4733 63.26 99.1C63.26 98.9133 63.3067 98.7733 63.4 98.68C63.3067 98.4933 63.0267 98.4933 62.56 98.68L61.86 96.72C61.7667 96.72 61.72 96.7667 61.72 96.86C61.5333 97.0467 61.3933 97.14 61.3 97.14C61.2067 97.0467 61.02 97 60.74 97L60.46 95.74L59.48 95.32L57.8 93.78C57.7067 93.5933 57.52 93.4533 57.24 93.36C57.0533 93.2667 56.7733 93.1267 56.4 92.94L56.26 91.82C56.1667 91.6333 56.0267 91.4933 55.84 91.4C55.6533 91.2133 55.4667 91.0267 55.28 90.84H54.58C54.4867 90.9333 54.2533 90.98 53.88 90.98C53.7867 91.0733 53.5533 90.84 53.18 90.28C52.9933 89.9067 52.8067 89.6267 52.62 89.44C52.4333 89.16 52.2467 88.9733 52.06 88.88L49.82 87.48L48.7 87.06L48.56 85.8L46.18 84.54L45.62 83.56C45.4333 83.0933 45.06 82.86 44.5 82.86H44.36C44.08 82.58 43.94 82.3 43.94 82.02C42.6333 79.8733 41.9333 78.8 41.84 78.8C41.84 78.8 41.56 78.8933 41 79.08H40.86C40.3933 79.08 40.1133 78.7533 40.02 78.1L39.6 76.42C38.6667 76.42 38.06 75.3467 37.78 73.2L36.52 72.64C36.4267 71.9867 36.3333 71.52 36.24 71.24C36.24 70.96 36.24 70.8667 36.24 70.96C36.3333 70.12 36.4267 69.7933 36.52 69.98C36.4267 69.5133 36.1467 69.1867 35.68 69C35.4 69 35.1667 68.86 34.98 68.58C34.8867 67.5533 34.8867 66.5733 34.98 65.64C35.0733 64.6133 35.1667 63.5867 35.26 62.56C35.26 62.28 35.1667 61.86 34.98 61.3L34.56 60.32L34.98 59.76V59.2C34.98 58.2667 35.1667 57.24 35.54 56.12C35.6333 56.12 35.82 56.12 36.1 56.12C36.38 56.0267 36.6133 55.84 36.8 55.56L35.96 53.74L37.78 50.24C38.5267 48.9333 39.1333 48.28 39.6 48.28L40.44 48.42C40.5333 48.42 40.6267 48.3733 40.72 48.28C40.72 48.1867 40.6267 47.8133 40.44 47.16H41C41.1867 47.16 41.28 47.16 41.28 47.16L42.12 46.04C42.3067 45.8533 42.82 45.6667 43.66 45.48L44.22 43.94H44.78C44.8733 44.0333 44.9667 44.1267 45.06 44.22C45.1533 44.3133 45.2467 44.4533 45.34 44.64C45.9933 44.36 46.5533 43.7067 47.02 42.68L48.28 41.7C48.28 41.7 48.3267 41.7 48.42 41.7C48.6067 41.7 48.84 41.6533 49.12 41.56L49.82 41.7C50.1 41.7933 50.3333 41.84 50.52 41.84C50.8 41.84 51.2667 41.5133 51.92 40.86C52.6667 40.3 53.0867 40.02 53.18 40.02L54.44 40.72C54.44 41 54.4867 41.2333 54.58 41.42L56.82 40.3C57.1 40.3 57.8 40.72 58.92 41.56C59.1067 41.84 59.1067 42.4933 58.92 43.52L59.34 43.38L59.48 42.82C59.6667 42.7267 59.8533 42.5867 60.04 42.4C60.2267 42.2133 60.46 42.0267 60.74 41.84C60.74 41.6533 60.88 41.3733 61.16 41C61.2533 41.0933 61.3467 41.1867 61.44 41.28C61.6267 41.3733 61.8133 41.5133 62 41.7C62.3733 42.0733 62.6533 42.26 62.84 42.26C63.0267 42.0733 63.3067 41.9333 63.68 41.84H63.96C64.8 41.84 65.7333 42.1667 66.76 42.82L68.58 44.22L68.72 44.92C68.5333 44.92 68.3 45.06 68.02 45.34C68.3 45.8067 68.72 46.04 69.28 46.04V46.6C69.4667 46.6933 69.7933 46.6467 70.26 46.46C70.4467 47.02 70.9133 47.3 71.66 47.3C71.8467 47.3 72.08 47.5333 72.36 48C72.2667 48.28 72.2667 48.6067 72.36 48.98C73.3867 50.8467 73.9 51.6867 73.9 51.5V51.64C73.9 51.92 73.7133 52.4333 73.34 53.18C72.8733 54.3 72.64 54.9067 72.64 55C72.64 55.3733 73.2 55.6533 74.32 55.84C75.3467 56.0267 75.8133 56.2133 75.72 56.4L76.42 57.38C76.3267 57.4733 76.28 57.66 76.28 57.94C76.28 58.22 76.3733 58.64 76.56 59.2C76.9333 60.04 77.12 60.6467 77.12 61.02C76.9333 61.2067 76.7 61.44 76.42 61.72C76.14 61.9067 75.8133 62.14 75.44 62.42C75.2533 62.5133 74.9267 62.6067 74.46 62.7C74.0867 62.7933 73.5267 62.8867 72.78 62.98L69.7 63.4C69.5133 63.4933 69.28 63.5867 69 63.68C68.72 63.7733 68.44 63.8667 68.16 63.96L66.48 63.4C65.92 63.5867 65.5 64.1 65.22 64.94C64.8467 65.8733 64.4733 66.34 64.1 66.34C64.0067 66.34 63.8667 66.1067 63.68 65.64C63.4 65.1733 63.2133 64.94 63.12 64.94C63.0267 64.94 62.84 65.08 62.56 65.36L61.72 65.5L61.44 64.52C61.44 64.1467 61.58 63.82 61.86 63.54C62.0467 63.1667 62.14 62.9333 62.14 62.84L61.44 62C61.8133 61.72 62.14 61.16 62.42 60.32C61.86 60.32 61.16 60.18 60.32 59.9C60.32 59.7133 60.2733 59.48 60.18 59.2C60.0867 58.8267 59.9467 58.4533 59.76 58.08L59.2 56.54C58.7333 55.8867 57.8 55.3733 56.4 55L55.14 55.14C54.9533 55.14 54.72 55.1867 54.44 55.28C54.2533 55.28 53.9733 55.3267 53.6 55.42C53.32 55.42 52.9467 55 52.48 54.16C52.2933 54.16 52.2 54.3467 52.2 54.72L52.9 56.12C51.8733 56.96 51.0333 57.3333 50.38 57.24V59.34C50.1933 59.5267 50.0533 59.7133 49.96 59.9C49.96 60.0867 49.96 60.32 49.96 60.6C50.0533 60.88 50.1467 61.2067 50.24 61.58C50.4267 62.42 50.4733 62.98 50.38 63.26C50.38 63.3533 50.3333 63.4467 50.24 63.54C50.0533 63.7267 49.96 63.96 49.96 64.24C49.96 64.4267 50.1 64.66 50.38 64.94C50.5667 65.3133 50.66 65.5 50.66 65.5C50.66 65.5933 50.3333 65.9667 49.68 66.62C49.0267 67.2733 48.7 67.6467 48.7 67.74C48.7933 69.5133 49.4933 70.4 50.8 70.4H51.22C51.5 70.4 51.78 70.4 52.06 70.4C52.34 70.3067 52.62 70.26 52.9 70.26C53.2733 70.26 53.6467 70.3067 54.02 70.4C54.3933 70.4 54.7667 70.4467 55.14 70.54V71.94C55.14 72.5 55.7467 73.2933 56.96 74.32C57.1467 74.32 57.38 74.3667 57.66 74.46C58.0333 74.46 58.4067 74.5067 58.78 74.6L59.2 75.44C59.3867 75.5333 59.7133 75.8133 60.18 76.28L60.74 77.4C60.9267 77.68 61.1133 77.82 61.3 77.82C62.0467 77.7267 62.5133 77.6333 62.7 77.54C62.7933 77.54 62.7933 77.54 62.7 77.54C62.98 79.9667 63.1667 81.18 63.26 81.18L64.8 79.36H65.22L65.78 80.9C65.8733 80.9933 65.92 81.04 65.92 81.04C66.0133 81.04 66.06 81.04 66.06 81.04L66.9 80.76C67.2733 80.8533 67.4133 81.32 67.32 82.16L68.72 82.86C68.8133 82.86 69.14 83.2333 69.7 83.98C70.54 83.98 71.1467 84.3067 71.52 84.96C71.6133 85.1467 71.7067 85.38 71.8 85.66C71.8933 85.8467 72.0333 86.1267 72.22 86.5L73.34 87.06C73.34 87.2467 73.34 87.48 73.34 87.76C73.34 88.04 73.3867 88.4133 73.48 88.88C73.48 89.3467 73.5733 89.6733 73.76 89.86C73.8533 89.86 74.18 89.5333 74.74 88.88C75.2067 88.9733 75.5333 89.44 75.72 90.28C75.9067 91.0267 76.1867 91.4 76.56 91.4C76.7467 91.4 76.8867 91.3533 76.98 91.26C77.0733 91.54 77.12 91.8667 77.12 92.24C77.12 92.52 77.12 92.8467 77.12 93.22C77.12 93.5 77.3067 93.78 77.68 94.06C78.0533 94.2467 78.38 94.2933 78.66 94.2L79.22 96.02C79.4067 96.4867 79.2667 96.8133 78.8 97C78.9867 97.1867 79.1733 97.2333 79.36 97.14L79.22 97.84L79.92 98.96L80.06 100.08C80.34 100.36 80.5267 100.593 80.62 100.78C80.9933 101.247 81.2267 102.787 81.32 105.4C81.2267 105.68 81.18 106.24 81.18 107.08L80.62 107.92C80.8067 108.293 80.9467 108.993 81.04 110.02L80.48 110.58C80.48 111.14 79.9667 112.68 78.94 115.2L78.38 114.78C78.1 114.873 77.96 115.153 77.96 115.62C77.96 116.833 77.9133 117.487 77.82 117.58L76.42 118.42C76.5133 119.073 76.5133 119.54 76.42 119.82L74.18 121.64L73.62 122.48C72.9667 122.947 72.3133 123.413 71.66 123.88C71.1 124.253 70.4933 124.533 69.84 124.72C69.7467 124.72 69.56 124.767 69.28 124.86C69.0933 124.86 68.8133 124.907 68.44 125C68.0667 125.467 67.4133 126.027 66.48 126.68L65.08 126.26L64.24 126.68C64.0533 126.867 63.4933 126.96 62.56 126.96H60.32C59.9467 127.053 59.5733 127.147 59.2 127.24C58.92 127.333 58.5467 127.427 58.08 127.52ZM44.36 56.82C44.4533 56.7267 44.78 56.5867 45.34 56.4L46.46 56.54L47.58 56.82C48.3267 56.6333 48.7 56.2133 48.7 55.56L48.56 55L46.6 55.28C46.1333 55.28 45.6667 55.4667 45.2 55.84C44.5467 55.3733 44.08 55.14 43.8 55.14C43.8933 55.3267 43.9867 55.56 44.08 55.84C44.1733 56.12 44.2667 56.4467 44.36 56.82ZM41.7 56.54C41.98 56.7267 42.2133 56.54 42.4 55.98C42.2133 55.7933 42.0267 55.7933 41.84 55.98C41.6533 56.1667 41.6067 56.3533 41.7 56.54ZM70.12 56.96L70.68 56.4C70.68 56.3067 70.4933 56.3067 70.12 56.4V56.96ZM71.94 57.66C72.22 57.7533 72.5 57.6133 72.78 57.24C72.6867 57.1467 72.5467 57.1 72.36 57.1C72.08 57.1 71.94 57.2867 71.94 57.66ZM48.14 59.2C48.14 58.8267 48.0467 58.64 47.86 58.64C47.7667 58.4533 47.58 58.5 47.3 58.78C47.3 59.06 47.58 59.2 48.14 59.2ZM38.2 63.26C38.2933 63.3533 38.34 63.4467 38.34 63.54C38.4333 63.6333 38.5267 63.7267 38.62 63.82C38.62 63.7267 38.62 63.5867 38.62 63.4V63.26H38.2ZM57.52 78.24C57.7067 78.24 57.8933 78.1467 58.08 77.96C58.2667 77.7733 58.1733 77.5867 57.8 77.4C57.6133 77.5867 57.52 77.8667 57.52 78.24ZM46.6 78.24C46.6 78.0533 46.5067 77.8667 46.32 77.68C46.1333 77.4933 45.9467 77.5867 45.76 77.96C45.76 78.24 46.04 78.3333 46.6 78.24ZM66.48 96.02C66.6667 96.02 66.8533 95.9267 67.04 95.74C67.04 95.46 66.9467 95.2267 66.76 95.04C66.48 95.2267 66.3867 95.5533 66.48 96.02ZM72.36 97.98C72.36 97.7933 72.2667 97.6067 72.08 97.42C71.8 97.2333 71.5667 97.3267 71.38 97.7C71.5667 97.98 71.8933 98.0733 72.36 97.98ZM74.74 103.3C74.74 103.02 74.6 102.833 74.32 102.74C74.1333 102.74 73.9467 102.833 73.76 103.02C73.9467 103.3 74.2733 103.393 74.74 103.3ZM66.76 103.72C66.8533 103.813 66.8533 103.86 66.76 103.86C66.8533 103.767 66.9 103.72 66.9 103.72H66.76ZM45.62 106.8L46.18 106.38C46.18 106.38 46.0867 106.287 45.9 106.1C45.9 106.1 45.8533 106.193 45.76 106.38C45.6667 106.567 45.62 106.707 45.62 106.8ZM50.52 122.62L51.08 122.48C51.1733 122.387 51.5 122.34 52.06 122.34L53.74 120.38C53.5533 120.193 53.3667 119.913 53.18 119.54C52.9933 119.073 52.8067 118.56 52.62 118V117.58C52.62 117.113 52.76 116.74 53.04 116.46L51.64 116.6L52.48 119.4C52.48 120.147 52.3867 120.427 52.2 120.24L52.06 120.1C52.06 120.1 51.9667 120.1 51.78 120.1C51.5933 120.38 51.08 120.94 50.24 121.78C50.4267 121.967 50.52 122.247 50.52 122.62ZM57.52 118C57.52 117.907 57.38 117.72 57.1 117.44C57.1 117.44 57.0067 117.533 56.82 117.72C56.82 117.72 56.9133 117.767 57.1 117.86C57.2867 117.953 57.4267 118 57.52 118ZM48.28 119.82C48.28 119.633 48.1867 119.447 48 119.26C47.9067 119.073 47.72 119.12 47.44 119.4C47.44 119.68 47.72 119.82 48.28 119.82ZM57.8 120.1C57.8933 119.913 57.8467 119.727 57.66 119.54C57.5667 119.353 57.3333 119.447 56.96 119.82C57.1467 120.1 57.4267 120.193 57.8 120.1ZM96.7309 126.12L95.7509 125.42L95.1909 125.56C95.0043 125.653 94.7709 125.7 94.4909 125.7L93.3709 125.14C92.7176 124.767 92.2976 124.58 92.1109 124.58C91.8309 124.58 91.6443 124.767 91.5509 125.14C91.1776 125.513 90.8509 125.653 90.5709 125.56L90.0109 125.42C89.7309 125.327 89.4509 125.28 89.1709 125.28L88.4709 125.56C88.0976 125.653 87.8176 125.653 87.6309 125.56C87.6309 125.56 87.3509 125.467 86.7909 125.28L85.9509 124.86C85.9509 124.86 85.4376 125.14 84.4109 125.7H83.7109L83.4309 125.28L83.8509 123.18C83.9443 122.713 84.0843 122.247 84.2709 121.78C84.4576 121.22 84.5976 120.613 84.6909 119.96L84.2709 119.26C84.1776 118.98 84.0376 118.747 83.8509 118.56C83.7576 118.373 83.7109 118.187 83.7109 118L84.4109 115.9C84.3176 114.78 84.3176 113.1 84.4109 110.86C85.0643 110.86 85.7176 110.72 86.3709 110.44C86.3709 110.253 86.0443 109.973 85.3909 109.6L84.2709 109.04L85.1109 108.2V106.94C84.8309 106.66 84.6443 106.38 84.5509 106.1L84.4109 104.14C84.5043 103.02 84.7843 101.947 85.2509 100.92H85.8109C85.9976 100.92 86.1376 100.593 86.2309 99.94C86.2309 99.38 86.1843 99.0533 86.0909 98.96C85.9976 99.0533 85.7643 99.1 85.3909 99.1L84.8309 97.98C84.7376 97.3267 84.6443 96.8133 84.5509 96.44C84.5509 95.9733 84.5976 95.5533 84.6909 95.18C84.6909 94.5267 85.0643 93.8267 85.8109 93.08C85.9043 92.8 85.9509 92.52 85.9509 92.24C85.9509 91.96 85.9509 91.7267 85.9509 91.54C85.9509 90.7933 85.8109 90.3733 85.5309 90.28L86.0909 83.98C85.5309 83.2333 85.2509 82.6267 85.2509 82.16L85.3909 78.1L86.2309 72.78C86.2309 72.6867 85.9976 72.4067 85.5309 71.94C85.9043 71.38 86.0909 70.9133 86.0909 70.54L86.3709 67.6C86.2776 67.4133 86.2309 67.2267 86.2309 67.04C86.2309 66.76 86.1843 66.4333 86.0909 66.06L86.3709 64.66C86.4643 64.5667 86.6043 64.4733 86.7909 64.38C86.9776 64.2867 87.1643 64.1933 87.3509 64.1C87.5376 63.82 87.3976 63.68 86.9309 63.68H86.2309C86.3243 63.5867 86.4176 63.2133 86.5109 62.56C86.4176 62.1867 86.3709 61.8133 86.3709 61.44C86.3709 60.9733 86.3709 60.46 86.3709 59.9C86.4643 59.4333 86.5109 59.06 86.5109 58.78C86.6043 58.4067 86.6509 58.1267 86.6509 57.94C86.6509 57.2867 86.6043 56.7733 86.5109 56.4C86.5109 56.0267 86.5576 55.7933 86.6509 55.7L87.2109 55L86.5109 54.3C86.4176 54.2067 86.3709 53.8333 86.3709 53.18L87.0709 50.24C86.9776 50.0533 86.9309 49.6333 86.9309 48.98L87.3509 48.14C87.2576 47.9533 87.1176 47.7667 86.9309 47.58C86.8376 47.3 86.7443 46.9733 86.6509 46.6C86.6509 46.5067 86.7443 46.3667 86.9309 46.18C87.1176 45.9933 87.2109 45.8067 87.2109 45.62L86.7909 43.38C86.8843 43.2867 86.9776 43.0533 87.0709 42.68C86.9776 42.4933 86.8376 42.2133 86.6509 41.84V40.72H87.9109L89.0309 41.42L91.8309 41.84C91.8309 41.9333 91.6909 42.3533 91.4109 43.1C91.5976 43.2867 91.8309 43.2867 92.1109 43.1C92.2043 42.9133 92.1576 42.4933 91.9709 41.84C92.1576 41.6533 92.6709 41.56 93.5109 41.56C94.1643 41.56 94.6776 41.6533 95.0509 41.84L96.1709 41C96.0776 41.0933 96.3109 41.3267 96.8709 41.7C97.4309 41.8867 97.9909 41.98 98.5509 41.98L98.9709 41.7C99.0643 41.6067 99.2043 41.56 99.3909 41.56L100.511 41.7C100.698 41.7 100.884 41.7467 101.071 41.84C101.258 41.9333 101.398 41.98 101.491 41.98L102.051 41.7C102.424 41.5133 102.611 41.42 102.611 41.42C103.544 41.42 103.918 41.7 103.731 42.26L103.451 44.08C103.264 44.2667 103.078 44.5933 102.891 45.06C102.798 45.1533 102.751 45.3867 102.751 45.76C102.751 46.4133 102.704 46.7867 102.611 46.88C102.051 47.16 101.771 47.3467 101.771 47.44C101.584 47.2533 101.398 47.1133 101.211 47.02L100.931 47.44C100.838 47.5333 100.931 47.6267 101.211 47.72C101.304 47.72 101.398 47.6733 101.491 47.58C101.491 47.4867 101.538 47.4867 101.631 47.58L102.891 48.28L102.611 53.04C101.958 53.4133 101.538 54.3467 101.351 55.84C101.724 56.2133 102.051 56.4 102.331 56.4C102.424 56.4 102.518 56.3533 102.611 56.26C102.611 56.1667 102.658 56.12 102.751 56.12C102.938 56.12 103.264 56.3533 103.731 56.82C103.451 57.38 103.031 57.38 102.471 56.82L102.051 57.94C101.678 58.1267 101.398 58.36 101.211 58.64C101.211 59.48 101.584 60.04 102.331 60.32C102.144 60.2267 101.958 60.6 101.771 61.44C102.238 61.6267 102.471 61.9533 102.471 62.42C102.471 62.7 102.238 63.0733 101.771 63.54L102.051 64.1L101.911 64.66C101.911 64.5667 101.678 64.4733 101.211 64.38C101.211 64.38 100.978 64.6133 100.511 65.08C100.324 65.1733 100.091 65.2667 99.8109 65.36C99.5309 65.4533 99.1576 65.5933 98.6909 65.78C98.8776 66.06 99.1109 66.2 99.3909 66.2H99.9509C99.9509 66.3867 100.044 66.5733 100.231 66.76C100.138 66.9467 100.091 67.32 100.091 67.88C100.558 68.0667 101.024 68.44 101.491 69C101.584 69.28 101.631 69.7933 101.631 70.54C101.538 71.38 101.398 71.8933 101.211 72.08C101.118 72.2667 101.071 72.4533 101.071 72.64L101.631 75.16C101.724 75.5333 101.771 76 101.771 76.56C101.771 76.9333 101.724 77.26 101.631 77.54C101.631 77.7267 101.584 77.9133 101.491 78.1C101.771 78.7533 101.911 79.22 101.911 79.5L100.791 81.04C100.698 81.2267 100.651 81.5533 100.651 82.02C100.744 82.02 100.931 82.3467 101.211 83C101.398 83.3733 101.491 83.7 101.491 83.98C101.491 84.4467 101.211 84.82 100.651 85.1C100.651 85.2867 100.698 85.52 100.791 85.8C100.884 86.08 100.978 86.4533 101.071 86.92L101.351 88.18C101.258 88.2733 101.164 88.4133 101.071 88.6C101.071 88.7867 100.978 88.9733 100.791 89.16L101.071 90.56C100.978 90.6533 100.838 90.84 100.651 91.12C100.464 91.3067 100.278 91.54 100.091 91.82C99.9976 92.1 99.9509 92.6133 99.9509 93.36C99.9509 93.7333 100.091 94.1533 100.371 94.62L100.231 95.18C100.418 95.2733 100.511 95.6467 100.511 96.3V97.56C100.791 98.2133 100.978 98.5867 101.071 98.68L99.8109 100.08C99.9976 100.173 100.184 100.267 100.371 100.36C100.558 100.453 100.791 100.593 101.071 100.78C100.884 101.527 100.651 102.18 100.371 102.74C99.9043 103.487 99.6709 103.953 99.6709 104.14L100.511 108.2C100.418 108.293 100.324 108.387 100.231 108.48C100.138 108.573 100.044 108.713 99.9509 108.9L99.8109 111.56C99.7176 111.653 99.4843 111.793 99.1109 111.98C99.1109 112.447 99.3909 112.773 99.9509 112.96C99.4843 113.147 99.2509 113.38 99.2509 113.66V113.94C99.2509 114.407 99.4376 114.78 99.8109 115.06C100.278 115.527 100.511 115.9 100.511 116.18L99.8109 117.16V118.7H99.5309C98.9709 118.7 98.3176 118.887 97.5709 119.26L98.1309 119.82H98.4109C99.4376 119.82 99.9976 120.847 100.091 122.9H99.2509C99.0643 122.713 98.6909 122.993 98.1309 123.74C98.1309 123.74 98.2709 123.833 98.5509 124.02L99.3909 123.74L99.8109 125.42C98.5976 125.793 98.0376 125.98 98.1309 125.98H98.2709C98.2709 125.98 98.2243 125.98 98.1309 125.98L97.4309 125.84C97.1509 125.84 96.9176 125.933 96.7309 126.12ZM96.1709 49.26C96.4509 49.3533 96.7309 49.2133 97.0109 48.84C96.9176 48.7467 96.7776 48.7 96.5909 48.7C96.3109 48.7 96.1709 48.8867 96.1709 49.26ZM98.2709 55.14L98.6909 55L99.1109 54.02C99.4843 53.8333 99.8109 53.6 100.091 53.32L98.9709 50.66C98.5976 50.7533 98.3176 50.8933 98.1309 51.08V51.5C98.1309 51.8733 98.0376 52.2467 97.8509 52.62C97.4776 52.9 97.0576 53.32 96.5909 53.88C97.1509 54.72 97.7109 55.14 98.2709 55.14ZM95.8909 58.64C95.9843 58.36 95.9376 58.1267 95.7509 57.94C95.6576 57.7533 95.4709 57.8 95.1909 58.08C95.1909 58.2667 95.4243 58.4533 95.8909 58.64ZM95.0509 61.02L94.7709 61.58C94.8643 61.4867 94.9576 61.44 95.0509 61.44H95.1909C95.1909 61.2533 95.1443 61.1133 95.0509 61.02ZM86.2309 63.68C86.2309 63.7733 86.2309 63.7733 86.2309 63.68V63.68ZM89.1709 65.92C89.3576 66.0133 89.5443 65.9667 89.7309 65.78C89.9176 65.5933 89.8709 65.4067 89.5909 65.22C89.3109 65.22 89.1709 65.4533 89.1709 65.92ZM95.6109 74.88C95.7043 74.6933 95.6576 74.5067 95.4709 74.32C95.3776 74.1333 95.1909 74.18 94.9109 74.46C94.9109 74.74 95.1443 74.88 95.6109 74.88ZM89.1709 75.02C89.2643 74.9267 89.3109 74.6933 89.3109 74.32H88.7509C88.6576 74.32 88.7043 74.4133 88.8909 74.6C89.0776 74.7867 89.1709 74.9267 89.1709 75.02ZM90.0109 81.88C90.1043 81.7867 90.1509 81.6467 90.1509 81.46C90.1509 81.18 89.9643 81.0867 89.5909 81.18C89.4043 81.3667 89.5443 81.6 90.0109 81.88ZM93.5109 90V89.44C93.4176 89.2533 93.2776 89.2533 93.0909 89.44L93.5109 90ZM94.2109 97C94.3976 96.8133 94.4909 96.6733 94.4909 96.58C94.4909 96.3 94.2576 96.16 93.7909 96.16C93.6976 96.44 93.8376 96.72 94.2109 97ZM89.4509 98.68L90.4309 97.98C90.2443 97.5133 89.8709 97.0933 89.3109 96.72C88.6576 96.6267 88.3309 96.7667 88.3309 97.14C88.3309 97.7 88.7043 98.2133 89.4509 98.68ZM101.071 98.54C101.071 98.6333 101.071 98.68 101.071 98.68V98.54ZM86.2309 113.38C86.5109 113.473 86.7909 113.287 87.0709 112.82C86.9776 112.727 86.8376 112.68 86.6509 112.68C86.3709 112.68 86.2309 112.913 86.2309 113.38ZM94.9109 121.22C94.9109 120.94 94.8643 120.753 94.7709 120.66C94.6776 120.567 94.4443 120.613 94.0709 120.8C94.0709 121.08 94.3509 121.22 94.9109 121.22ZM86.0909 122.62C86.0909 122.433 85.9976 122.247 85.8109 122.06C85.6243 121.873 85.4376 121.873 85.2509 122.06C85.2509 122.247 85.5309 122.433 86.0909 122.62ZM128.311 126.96L127.331 126.54C126.771 126.54 126.304 126.493 125.931 126.4L124.531 125.42C123.971 125.42 123.691 125.607 123.691 125.98C123.597 126.26 123.411 126.4 123.131 126.4L122.011 125.84C122.011 125.933 121.777 126.027 121.311 126.12C121.031 125.653 120.611 125.233 120.051 124.86C120.051 124.86 119.817 124.953 119.351 125.14C118.977 124.953 118.417 124.533 117.671 123.88L116.411 122.62L115.431 122.76C115.337 122.573 115.197 122.34 115.011 122.06C114.824 121.687 114.637 121.313 114.451 120.94C114.451 120.753 114.171 120.473 113.611 120.1L113.051 118.28C113.051 118.187 112.911 118.093 112.631 118C112.537 118.093 112.351 118.14 112.071 118.14C111.884 118.14 111.697 118 111.511 117.72L110.811 114.78C110.717 114.407 110.624 114.08 110.531 113.8C110.531 113.427 110.531 113.147 110.531 112.96L110.111 112.4C110.111 112.213 110.064 111.933 109.971 111.56C109.877 111.187 109.784 110.72 109.691 110.16L109.411 108.48C109.504 107.547 109.551 106.94 109.551 106.66C109.551 106.38 109.597 106.333 109.691 106.52L110.811 105.96C110.437 105.773 110.157 105.68 109.971 105.68L110.111 104.56L109.411 103.86C109.317 103.393 109.224 102.927 109.131 102.46C109.131 101.9 109.177 101.433 109.271 101.06L109.411 100.5H110.111C110.391 100.033 110.531 99.52 110.531 98.96L109.551 98.4C109.551 98.12 109.551 97.7933 109.551 97.42C109.551 97.0467 109.504 96.6733 109.411 96.3C109.504 95.46 109.597 94.7133 109.691 94.06C109.784 93.4067 109.877 92.8933 109.971 92.52C110.064 92.3333 110.391 91.96 110.951 91.4C110.671 91.12 110.391 90.9333 110.111 90.84V90.14C110.391 89.86 110.577 89.58 110.671 89.3C110.857 88.8333 111.044 88.0867 111.231 87.06C111.324 86.9667 111.604 86.92 112.071 86.92L113.051 87.06C113.051 87.06 113.144 86.9667 113.331 86.78L112.771 85.8C112.584 85.8 112.444 85.8467 112.351 85.94C111.977 86.0333 111.744 86.2667 111.651 86.64C110.904 86.5467 110.531 86.0333 110.531 85.1L110.811 80.34C111.277 79.5933 111.511 78.7533 111.511 77.82L111.091 76.28C111.184 76.0933 111.231 75.86 111.231 75.58C111.231 75.2067 111.277 74.8333 111.371 74.46L112.351 73.9C112.164 73.9 111.977 73.8533 111.791 73.76L111.931 71.8C112.024 71.8 112.117 71.66 112.211 71.38C112.211 71.2867 111.931 70.96 111.371 70.4L112.071 66.2C112.351 65.92 112.537 65.64 112.631 65.36C112.817 64.7067 113.051 64.24 113.331 63.96C113.704 63.5867 113.891 63.26 113.891 62.98L113.751 62.7C113.751 62.6067 113.751 62.3733 113.751 62C113.751 61.6267 113.797 61.1133 113.891 60.46C113.891 60.18 113.844 59.9 113.751 59.62C113.751 59.2467 113.751 58.8733 113.751 58.5C113.751 57.1 113.891 55.28 114.171 53.04C114.264 53.04 114.451 53.18 114.731 53.46H115.011C115.104 53.46 115.151 53.3667 115.151 53.18L114.871 52.2L114.591 51.08C114.591 50.7067 114.731 50.3333 115.011 49.96C115.384 49.7733 115.757 49.4933 116.131 49.12L116.691 47.02C116.971 46.6467 117.624 46.2267 118.651 45.76C118.651 46.32 118.884 46.6 119.351 46.6H119.631C120.097 46.6 120.331 46.32 120.331 45.76L119.911 44.36L122.291 42.26L122.431 42.12C122.617 42.12 123.271 42.5867 124.391 43.52L124.531 43.38C124.717 43.1933 124.811 43.0067 124.811 42.82C124.811 42.1667 124.717 41.9333 124.531 42.12L124.671 41.28H126.351L127.331 40.86C127.797 40.6733 128.077 40.6267 128.171 40.72L128.871 41C128.871 41.0933 128.871 41.2333 128.871 41.42C128.871 41.6067 128.824 41.8867 128.731 42.26L129.151 42.4C129.524 42.4 129.757 42.2133 129.851 41.84V40.86C129.851 40.6733 129.804 40.4867 129.711 40.3C129.711 40.1133 129.711 39.9733 129.711 39.88C130.177 39.6 130.691 39.5067 131.251 39.6L132.651 40.02L134.051 39.74L135.311 39.46C135.591 39.46 136.057 39.6467 136.711 40.02C136.711 40.1133 136.991 40.16 137.551 40.16H139.231L140.911 40.58C141.004 40.6733 141.097 40.7667 141.191 40.86C141.284 40.9533 141.424 41.0467 141.611 41.14L142.171 41H142.591C143.151 41 144.037 41.7 145.251 43.1L146.651 43.52C146.837 43.7067 147.024 43.94 147.211 44.22C148.051 44.5933 148.611 45.1533 148.891 45.9C148.984 45.9933 149.031 46.46 149.031 47.3C149.217 47.9533 149.544 48.4667 150.011 48.84C150.104 48.9333 150.291 49.0733 150.571 49.26C150.851 49.4467 151.271 49.6333 151.831 49.82C152.391 50.66 152.624 51.2667 152.531 51.64C152.531 51.7333 152.157 52.0133 151.411 52.48C150.664 52.9467 150.291 53.2267 150.291 53.32C150.291 53.5067 150.337 53.7867 150.431 54.16C150.524 54.44 150.757 54.72 151.131 55L152.111 55.84C152.204 55.84 152.251 55.8867 152.251 55.98C152.437 56.1667 152.531 56.4 152.531 56.68L153.091 56.96L153.511 60.74L153.091 67.74C152.997 67.8333 152.904 67.9267 152.811 68.02C152.717 68.1133 152.624 68.2533 152.531 68.44C152.531 68.8133 152.484 69.2333 152.391 69.7C152.391 70.1667 152.344 70.7267 152.251 71.38L151.971 71.94L150.991 71.8C150.711 71.8933 150.244 71.94 149.591 71.94C149.404 71.94 149.031 71.8 148.471 71.52C147.911 71.24 147.537 71.1 147.351 71.1C146.697 71.1933 145.997 71.3333 145.251 71.52C144.504 71.6133 143.711 71.7067 142.871 71.8C142.591 71.52 142.311 71.3333 142.031 71.24C141.844 71.3333 141.471 71.38 140.911 71.38L138.111 70.96C137.644 70.4933 137.411 69.98 137.411 69.42C137.411 69.14 137.691 68.6733 138.251 68.02L138.111 67.32C138.204 67.2267 138.251 67.0867 138.251 66.9C138.251 66.7133 138.297 66.48 138.391 66.2C138.297 64.3333 138.531 62.28 139.091 60.04C138.811 59.8533 138.437 59.48 137.971 58.92C138.624 58.7333 139.371 58.36 140.211 57.8V57.24L139.791 57.1C139.791 57.1 139.417 57.38 138.671 57.94L138.111 57.8L138.251 55.84C138.624 55.6533 138.951 55.42 139.231 55.14C139.231 54.58 139.091 54.1133 138.811 53.74L137.271 55.14L136.011 54.3C135.544 54.1133 134.891 53.9733 134.051 53.88C133.957 53.9733 133.771 54.02 133.491 54.02C133.397 54.02 133.117 53.7867 132.651 53.32L130.131 55.28C129.384 55.9333 128.917 56.6333 128.731 57.38C128.171 57.38 127.891 57.8 127.891 58.64L128.311 60.46C128.311 60.8333 128.124 61.16 127.751 61.44C127.284 61.2533 126.957 60.7867 126.771 60.04L126.351 59.9L126.071 60.46C126.071 60.74 126.351 61.1133 126.911 61.58L127.751 62.14C127.751 62.7 127.704 63.1667 127.611 63.54L128.031 66.06L127.331 68.02V69.7L126.491 70.82V71.38C126.491 72.5 126.117 73.2933 125.371 73.76C125.744 73.76 126.257 74.04 126.911 74.6L125.091 78.8C125.184 79.08 125.184 79.9667 125.091 81.46L124.531 90.28L125.231 98.96C125.231 99.24 124.951 99.7533 124.391 100.5C124.484 100.593 124.577 100.733 124.671 100.92C124.857 101.107 125.091 101.293 125.371 101.48V101.9L124.111 102.32C124.111 102.413 124.157 102.553 124.251 102.74C124.344 102.833 124.437 102.973 124.531 103.16L124.811 104C124.251 104.373 123.784 105.307 123.411 106.8C123.784 106.893 124.064 107.36 124.251 108.2C124.437 109.04 124.391 109.6 124.111 109.88C124.204 109.973 124.717 110.02 125.651 110.02V110.72L125.231 111.28C125.324 111.373 125.511 111.513 125.791 111.7C126.071 111.887 126.444 112.073 126.911 112.26C126.911 112.727 127.144 113.333 127.611 114.08L128.171 113.94L128.591 113.8C128.591 113.8 128.871 113.893 129.431 114.08H129.851C130.317 114.08 130.691 113.94 130.971 113.66C130.971 113.567 131.111 113.473 131.391 113.38C131.577 113.193 131.671 113.1 131.671 113.1V112.96C131.484 112.96 131.391 112.96 131.391 112.96L130.971 113.1C131.064 113.007 131.204 112.96 131.391 112.96L132.091 112.68L133.071 112.4C133.164 112.4 133.257 112.447 133.351 112.54C133.351 112.633 133.397 112.68 133.491 112.68C133.771 112.68 134.004 112.447 134.191 111.98C134.377 111.793 134.424 111.42 134.331 110.86C135.264 110.3 135.451 109.553 134.891 108.62C135.357 107.593 135.544 106.333 135.451 104.84L135.871 98.4C136.244 98.2133 136.617 97.9333 136.991 97.56C137.457 97 137.737 96.6267 137.831 96.44C137.831 96.44 137.784 96.44 137.691 96.44C137.597 96.44 137.271 96.16 136.711 95.6C136.617 95.32 136.337 95.04 135.871 94.76L132.931 94.62C132.744 94.8067 132.557 94.9 132.371 94.9L131.531 94.48C131.437 94.48 131.344 94.5267 131.251 94.62C131.251 94.62 131.204 94.62 131.111 94.62L130.411 94.76C130.317 94.76 130.177 94.6667 129.991 94.48C129.897 94.3867 129.711 94.34 129.431 94.34C129.337 94.4333 129.011 94.48 128.451 94.48L128.171 93.92L128.311 92.66L128.171 91.82V91.54C128.171 91.1667 128.357 90.7 128.731 90.14C129.104 89.6733 129.291 89.3467 129.291 89.16L128.731 88.04L129.151 87.2L128.731 85.94C129.011 85.66 129.571 85.24 130.411 84.68C130.411 84.5867 130.271 84.4 129.991 84.12C129.991 84.12 129.757 84.26 129.291 84.54H128.591V83.84C128.684 83.7467 128.777 83.6533 128.871 83.56C128.964 83.3733 129.057 83.2333 129.151 83.14C129.151 83.14 129.244 82.8133 129.431 82.16C130.177 81.6933 130.644 81.46 130.831 81.46L131.671 81.88C132.137 82.16 132.417 82.3 132.511 82.3L133.071 82.16C133.257 82.0667 133.491 82.02 133.771 82.02L139.511 81.74C140.071 81.8333 140.397 82.16 140.491 82.72L140.911 84.12C141.097 84.0267 141.611 83.7467 142.451 83.28C143.011 82.72 143.477 82.5333 143.851 82.72L145.111 83.14C145.297 83.0467 145.484 83 145.671 83C145.857 83 146.091 82.9533 146.371 82.86C146.837 82.9533 147.257 83.0933 147.631 83.28C148.097 83.3733 148.564 83.4667 149.031 83.56H149.311C150.057 83.56 150.711 83.2333 151.271 82.58C151.737 82.7667 151.924 83.3267 151.831 84.26L150.991 87.62L151.271 88.18C151.364 88.46 151.411 88.7867 151.411 89.16C151.317 89.8133 151.084 90.14 150.711 90.14L150.291 90C150.197 90.0933 150.151 90.2333 150.151 90.42C150.151 90.42 150.244 90.5133 150.431 90.7H150.991C150.991 91.0733 150.944 91.4933 150.851 91.96C150.851 92.4267 150.804 92.9867 150.711 93.64C150.431 93.92 150.244 94.2 150.151 94.48L150.291 94.9C150.291 95.3667 150.291 96.02 150.291 96.86C150.384 97.7 150.477 98.7733 150.571 100.08C150.291 100.36 149.871 100.5 149.311 100.5C149.124 100.407 148.937 100.453 148.751 100.64C148.564 100.827 148.517 100.967 148.611 101.06C148.797 101.247 149.077 101.293 149.451 101.2C149.544 101.107 149.684 101.153 149.871 101.34C150.057 102.647 150.151 103.813 150.151 104.84C150.244 105.867 150.244 106.753 150.151 107.5L149.731 109.88C149.637 110.44 149.544 110.953 149.451 111.42C149.357 111.793 149.311 112.12 149.311 112.4L149.171 113.66C148.984 113.66 148.564 113.753 147.911 113.94C147.351 114.033 147.071 114.173 147.071 114.36C147.071 114.64 147.817 114.827 149.311 114.92V115.48C149.311 115.76 149.311 116.087 149.311 116.46C149.311 116.74 149.264 117.113 149.171 117.58C148.891 119.167 148.797 120.24 148.891 120.8C148.891 120.987 148.797 121.173 148.611 121.36C148.704 121.547 148.751 121.873 148.751 122.34V122.76C148.377 122.947 148.051 123.18 147.771 123.46C147.677 123.367 147.584 123.273 147.491 123.18C147.397 123.087 147.304 122.993 147.211 122.9C147.024 122.9 146.837 122.993 146.651 123.18L146.511 124.44L146.931 124.58C147.211 124.58 147.724 124.347 148.471 123.88L148.611 124.72L148.051 126.54C147.397 126.447 146.744 126.4 146.091 126.4C145.531 126.4 145.017 126.353 144.551 126.26L143.151 125.98C143.151 125.887 143.337 125.84 143.711 125.84C143.804 125.933 143.991 125.84 144.271 125.56L144.411 125.14C144.037 124.767 143.617 124.533 143.151 124.44C142.684 125.093 142.264 125.467 141.891 125.56C141.704 125.747 141.611 125.933 141.611 126.12C141.331 126.307 140.817 126.307 140.071 126.12C139.884 126.307 139.744 125.653 139.651 124.16L139.511 122.76C139.324 122.573 139.044 122.48 138.671 122.48C138.204 122.48 137.924 122.527 137.831 122.62L136.571 124.02C136.477 124.113 136.291 124.207 136.011 124.3C135.824 124.393 135.591 124.487 135.311 124.58C135.124 124.86 134.751 125.233 134.191 125.7L132.651 126.26C132.277 126.26 131.857 126.26 131.391 126.26C130.924 126.26 130.364 126.307 129.711 126.4C129.617 126.493 129.384 126.633 129.011 126.82C128.637 127.007 128.404 127.053 128.311 126.96ZM125.371 53.88C125.557 53.9733 125.744 53.9267 125.931 53.74C126.117 53.5533 126.117 53.3667 125.931 53.18C125.744 53.18 125.557 53.4133 125.371 53.88ZM122.711 58.5C122.991 58.5 123.597 58.1733 124.531 57.52C123.971 57.4267 123.551 57.24 123.271 56.96L122.431 56.26C122.524 57.0067 122.571 57.5667 122.571 57.94C122.664 58.3133 122.711 58.5 122.711 58.5ZM148.751 58.64C148.937 58.7333 149.217 58.5933 149.591 58.22C149.497 58.1267 149.357 58.08 149.171 58.08C148.891 58.08 148.751 58.2667 148.751 58.64ZM145.951 62.14C146.044 61.9533 145.997 61.7667 145.811 61.58C145.717 61.3933 145.531 61.44 145.251 61.72C145.251 62 145.484 62.14 145.951 62.14ZM144.691 69H144.831C145.391 69 145.857 68.72 146.231 68.16C146.791 68.16 147.257 67.88 147.631 67.32L145.671 65.22L144.691 66.2C144.877 66.76 144.877 67.6933 144.691 69ZM123.691 69.42L123.831 68.72H123.551V69.42H123.691ZM123.831 70.12L123.971 69.84L123.831 69.7L123.551 70.12H123.831ZM137.971 85.52C138.251 85.1467 138.297 84.82 138.111 84.54L137.131 84.4V85.38L137.971 85.52ZM137.831 86.92C137.924 86.8267 138.157 86.78 138.531 86.78V86.5C138.531 86.4067 138.484 86.36 138.391 86.36C138.391 86.36 138.391 86.3133 138.391 86.22C138.017 86.3133 137.831 86.5467 137.831 86.92ZM119.351 89.02C119.444 88.9267 119.491 88.74 119.491 88.46C119.397 88.3667 119.211 88.32 118.931 88.32C119.117 88.6933 119.257 88.9267 119.351 89.02ZM117.671 94.34L117.811 93.64C117.531 93.36 117.297 92.8 117.111 91.96C117.111 91.4 116.784 91.12 116.131 91.12H115.571L115.431 91.68C115.431 91.7733 115.431 91.8667 115.431 91.96C115.524 91.96 115.571 92.0067 115.571 92.1L115.711 92.52C115.711 92.7067 115.711 92.94 115.711 93.22C115.711 93.4067 115.757 93.6867 115.851 94.06C115.944 93.9667 116.224 93.92 116.691 93.92L117.671 94.34ZM119.911 96.02C120.097 95.8333 120.191 95.6933 120.191 95.6C120.191 95.32 119.957 95.18 119.491 95.18C119.397 95.46 119.537 95.74 119.911 96.02ZM140.631 100.5L141.191 100.22L140.911 99.8C140.817 99.8933 140.771 99.9867 140.771 100.08C140.771 100.173 140.724 100.313 140.631 100.5ZM137.551 110.58C137.271 110.86 137.084 111.14 136.991 111.42C136.991 111.607 137.177 111.887 137.551 112.26V110.58ZM111.371 112.12C111.651 112.213 111.931 112.073 112.211 111.7C112.024 111.513 111.884 111.42 111.791 111.42C111.511 111.42 111.371 111.653 111.371 112.12ZM133.631 113.8V113.24C133.537 113.147 133.351 113.1 133.071 113.1L132.931 113.38C132.931 113.567 132.977 113.707 133.071 113.8H133.631ZM141.051 113.8C141.144 113.613 141.097 113.427 140.911 113.24C140.724 113.053 140.537 113.053 140.351 113.24C140.351 113.427 140.584 113.613 141.051 113.8ZM113.191 116.04C113.657 115.853 113.937 115.527 114.031 115.06C114.124 114.873 114.077 114.687 113.891 114.5H113.471L113.191 116.04ZM134.191 115.34C134.191 114.967 134.097 114.78 133.911 114.78L133.351 114.64L133.071 115.2L134.191 115.34ZM131.951 121.5C132.324 121.5 132.651 121.22 132.931 120.66L132.651 120.38C131.997 120.473 131.577 120.613 131.391 120.8C131.484 120.893 131.577 120.987 131.671 121.08C131.764 121.173 131.857 121.313 131.951 121.5ZM171.516 126.12L170.536 125.42L169.976 125.56C169.789 125.653 169.556 125.7 169.276 125.7L168.156 125.14C167.503 124.767 167.083 124.58 166.896 124.58C166.616 124.58 166.429 124.767 166.336 125.14C165.963 125.513 165.636 125.653 165.356 125.56L164.796 125.42C164.516 125.327 164.236 125.28 163.956 125.28L163.256 125.56C162.883 125.653 162.603 125.653 162.416 125.56C162.416 125.56 162.136 125.467 161.576 125.28L160.736 124.86C160.736 124.86 160.223 125.14 159.196 125.7H158.496L158.216 125.28L158.636 123.18C158.729 122.713 158.869 122.247 159.056 121.78C159.243 121.22 159.383 120.613 159.476 119.96L159.056 119.26C158.963 118.98 158.823 118.747 158.636 118.56C158.543 118.373 158.496 118.187 158.496 118L159.196 115.9C159.103 114.78 159.103 113.1 159.196 110.86C159.849 110.86 160.503 110.72 161.156 110.44C161.156 110.253 160.829 109.973 160.176 109.6L159.056 109.04L159.896 108.2V106.94C159.616 106.66 159.429 106.38 159.336 106.1L159.196 104.14C159.289 103.02 159.569 101.947 160.036 100.92H160.596C160.783 100.92 160.923 100.593 161.016 99.94C161.016 99.38 160.969 99.0533 160.876 98.96C160.783 99.0533 160.549 99.1 160.176 99.1L159.616 97.98C159.523 97.3267 159.429 96.8133 159.336 96.44C159.336 95.9733 159.383 95.5533 159.476 95.18C159.476 94.5267 159.849 93.8267 160.596 93.08C160.689 92.8 160.736 92.52 160.736 92.24C160.736 91.96 160.736 91.7267 160.736 91.54C160.736 90.7933 160.596 90.3733 160.316 90.28L160.876 83.98C160.316 83.2333 160.036 82.6267 160.036 82.16L160.176 78.1L161.016 72.78C161.016 72.6867 160.783 72.4067 160.316 71.94C160.689 71.38 160.876 70.9133 160.876 70.54L161.156 67.6C161.063 67.4133 161.016 67.2267 161.016 67.04C161.016 66.76 160.969 66.4333 160.876 66.06L161.156 64.66C161.249 64.5667 161.389 64.4733 161.576 64.38C161.763 64.2867 161.949 64.1933 162.136 64.1C162.323 63.82 162.183 63.68 161.716 63.68H161.016C161.109 63.5867 161.203 63.2133 161.296 62.56C161.203 62.1867 161.156 61.8133 161.156 61.44C161.156 60.9733 161.156 60.46 161.156 59.9C161.249 59.4333 161.296 59.06 161.296 58.78C161.389 58.4067 161.436 58.1267 161.436 57.94C161.436 57.2867 161.389 56.7733 161.296 56.4C161.296 56.0267 161.343 55.7933 161.436 55.7L161.996 55L161.296 54.3C161.203 54.2067 161.156 53.8333 161.156 53.18L161.856 50.24C161.763 50.0533 161.716 49.6333 161.716 48.98L162.136 48.14C162.043 47.9533 161.903 47.7667 161.716 47.58C161.623 47.3 161.529 46.9733 161.436 46.6C161.436 46.5067 161.529 46.3667 161.716 46.18C161.903 45.9933 161.996 45.8067 161.996 45.62L161.576 43.38C161.669 43.2867 161.763 43.0533 161.856 42.68C161.763 42.4933 161.623 42.2133 161.436 41.84V40.72H162.696L163.816 41.42L166.616 41.84C166.616 41.9333 166.476 42.3533 166.196 43.1C166.383 43.2867 166.616 43.2867 166.896 43.1C166.989 42.9133 166.943 42.4933 166.756 41.84C166.943 41.6533 167.456 41.56 168.296 41.56C168.949 41.56 169.463 41.6533 169.836 41.84L170.956 41C170.863 41.0933 171.096 41.3267 171.656 41.7C172.216 41.8867 172.776 41.98 173.336 41.98L173.756 41.7C173.849 41.6067 173.989 41.56 174.176 41.56L175.296 41.7C175.483 41.7 175.669 41.7467 175.856 41.84C176.043 41.9333 176.183 41.98 176.276 41.98L176.836 41.7C177.209 41.5133 177.396 41.42 177.396 41.42C178.329 41.42 178.703 41.7 178.516 42.26L178.236 44.08C178.049 44.2667 177.863 44.5933 177.676 45.06C177.583 45.1533 177.536 45.3867 177.536 45.76C177.536 46.4133 177.489 46.7867 177.396 46.88C176.836 47.16 176.556 47.3467 176.556 47.44C176.369 47.2533 176.183 47.1133 175.996 47.02L175.716 47.44C175.623 47.5333 175.716 47.6267 175.996 47.72C176.089 47.72 176.183 47.6733 176.276 47.58C176.276 47.4867 176.323 47.4867 176.416 47.58L177.676 48.28L177.396 53.04C176.743 53.4133 176.323 54.3467 176.136 55.84C176.509 56.2133 176.836 56.4 177.116 56.4C177.209 56.4 177.303 56.3533 177.396 56.26C177.396 56.1667 177.443 56.12 177.536 56.12C177.723 56.12 178.049 56.3533 178.516 56.82C178.236 57.38 177.816 57.38 177.256 56.82L176.836 57.94C176.463 58.1267 176.183 58.36 175.996 58.64C175.996 59.48 176.369 60.04 177.116 60.32C176.929 60.2267 176.743 60.6 176.556 61.44C177.023 61.6267 177.256 61.9533 177.256 62.42C177.256 62.7 177.023 63.0733 176.556 63.54L176.836 64.1L176.696 64.66C176.696 64.5667 176.463 64.4733 175.996 64.38C175.996 64.38 175.763 64.6133 175.296 65.08C175.109 65.1733 174.876 65.2667 174.596 65.36C174.316 65.4533 173.943 65.5933 173.476 65.78C173.663 66.06 173.896 66.2 174.176 66.2H174.736C174.736 66.3867 174.829 66.5733 175.016 66.76C174.923 66.9467 174.876 67.32 174.876 67.88C175.343 68.0667 175.809 68.44 176.276 69C176.369 69.28 176.416 69.7933 176.416 70.54C176.323 71.38 176.183 71.8933 175.996 72.08C175.903 72.2667 175.856 72.4533 175.856 72.64L176.416 75.16C176.509 75.5333 176.556 76 176.556 76.56C176.556 76.9333 176.509 77.26 176.416 77.54C176.416 77.7267 176.369 77.9133 176.276 78.1C176.556 78.7533 176.696 79.22 176.696 79.5L175.576 81.04C175.483 81.2267 175.436 81.5533 175.436 82.02C175.529 82.02 175.716 82.3467 175.996 83C176.183 83.3733 176.276 83.7 176.276 83.98C176.276 84.4467 175.996 84.82 175.436 85.1C175.436 85.2867 175.483 85.52 175.576 85.8C175.669 86.08 175.763 86.4533 175.856 86.92L176.136 88.18C176.043 88.2733 175.949 88.4133 175.856 88.6C175.856 88.7867 175.763 88.9733 175.576 89.16L175.856 90.56C175.763 90.6533 175.623 90.84 175.436 91.12C175.249 91.3067 175.063 91.54 174.876 91.82C174.783 92.1 174.736 92.6133 174.736 93.36C174.736 93.7333 174.876 94.1533 175.156 94.62L175.016 95.18C175.203 95.2733 175.296 95.6467 175.296 96.3V97.56C175.576 98.2133 175.763 98.5867 175.856 98.68L174.596 100.08C174.783 100.173 174.969 100.267 175.156 100.36C175.343 100.453 175.576 100.593 175.856 100.78C175.669 101.527 175.436 102.18 175.156 102.74C174.689 103.487 174.456 103.953 174.456 104.14L175.296 108.2C175.203 108.293 175.109 108.387 175.016 108.48C174.923 108.573 174.829 108.713 174.736 108.9L174.596 111.56C174.503 111.653 174.269 111.793 173.896 111.98C173.896 112.447 174.176 112.773 174.736 112.96C174.269 113.147 174.036 113.38 174.036 113.66V113.94C174.036 114.407 174.223 114.78 174.596 115.06C175.063 115.527 175.296 115.9 175.296 116.18L174.596 117.16V118.7H174.316C173.756 118.7 173.103 118.887 172.356 119.26L172.916 119.82H173.196C174.223 119.82 174.783 120.847 174.876 122.9H174.036C173.849 122.713 173.476 122.993 172.916 123.74C172.916 123.74 173.056 123.833 173.336 124.02L174.176 123.74L174.596 125.42C173.383 125.793 172.823 125.98 172.916 125.98H173.056C173.056 125.98 173.009 125.98 172.916 125.98L172.216 125.84C171.936 125.84 171.703 125.933 171.516 126.12ZM170.956 49.26C171.236 49.3533 171.516 49.2133 171.796 48.84C171.703 48.7467 171.563 48.7 171.376 48.7C171.096 48.7 170.956 48.8867 170.956 49.26ZM173.056 55.14L173.476 55L173.896 54.02C174.269 53.8333 174.596 53.6 174.876 53.32L173.756 50.66C173.383 50.7533 173.103 50.8933 172.916 51.08V51.5C172.916 51.8733 172.823 52.2467 172.636 52.62C172.263 52.9 171.843 53.32 171.376 53.88C171.936 54.72 172.496 55.14 173.056 55.14ZM170.676 58.64C170.769 58.36 170.723 58.1267 170.536 57.94C170.443 57.7533 170.256 57.8 169.976 58.08C169.976 58.2667 170.209 58.4533 170.676 58.64ZM169.836 61.02L169.556 61.58C169.649 61.4867 169.743 61.44 169.836 61.44H169.976C169.976 61.2533 169.929 61.1133 169.836 61.02ZM161.016 63.68C161.016 63.7733 161.016 63.7733 161.016 63.68V63.68ZM163.956 65.92C164.143 66.0133 164.329 65.9667 164.516 65.78C164.703 65.5933 164.656 65.4067 164.376 65.22C164.096 65.22 163.956 65.4533 163.956 65.92ZM170.396 74.88C170.489 74.6933 170.443 74.5067 170.256 74.32C170.163 74.1333 169.976 74.18 169.696 74.46C169.696 74.74 169.929 74.88 170.396 74.88ZM163.956 75.02C164.049 74.9267 164.096 74.6933 164.096 74.32H163.536C163.443 74.32 163.489 74.4133 163.676 74.6C163.863 74.7867 163.956 74.9267 163.956 75.02ZM164.796 81.88C164.889 81.7867 164.936 81.6467 164.936 81.46C164.936 81.18 164.749 81.0867 164.376 81.18C164.189 81.3667 164.329 81.6 164.796 81.88ZM168.296 90V89.44C168.203 89.2533 168.063 89.2533 167.876 89.44L168.296 90ZM168.996 97C169.183 96.8133 169.276 96.6733 169.276 96.58C169.276 96.3 169.043 96.16 168.576 96.16C168.483 96.44 168.623 96.72 168.996 97ZM164.236 98.68L165.216 97.98C165.029 97.5133 164.656 97.0933 164.096 96.72C163.443 96.6267 163.116 96.7667 163.116 97.14C163.116 97.7 163.489 98.2133 164.236 98.68ZM175.856 98.54C175.856 98.6333 175.856 98.68 175.856 98.68V98.54ZM161.016 113.38C161.296 113.473 161.576 113.287 161.856 112.82C161.763 112.727 161.623 112.68 161.436 112.68C161.156 112.68 161.016 112.913 161.016 113.38ZM169.696 121.22C169.696 120.94 169.649 120.753 169.556 120.66C169.463 120.567 169.229 120.613 168.856 120.8C168.856 121.08 169.136 121.22 169.696 121.22ZM160.876 122.62C160.876 122.433 160.783 122.247 160.596 122.06C160.409 121.873 160.223 121.873 160.036 122.06C160.036 122.247 160.316 122.433 160.876 122.62ZM183.776 126.82C183.123 126.82 182.609 126.727 182.236 126.54C182.236 125.42 182.376 123.833 182.656 121.78C183.123 121.593 183.403 121.22 183.496 120.66V119.12C183.496 118.653 183.496 118.047 183.496 117.3C183.589 116.46 183.636 115.573 183.636 114.64C184.103 114.453 184.336 114.127 184.336 113.66V112.26C184.336 112.26 184.243 112.073 184.056 111.7V109.04C183.869 108.573 183.823 108.06 183.916 107.5L184.056 106.52C184.056 106.333 184.056 106.147 184.056 105.96C184.149 105.773 184.196 105.633 184.196 105.54C184.289 105.447 184.383 105.353 184.476 105.26C184.569 105.167 184.663 105.027 184.756 104.84C184.943 104.28 185.036 103.813 185.036 103.44C185.036 103.347 184.896 103.113 184.616 102.74C184.336 102.46 184.196 102.227 184.196 102.04C184.196 102.133 184.383 101.807 184.756 101.06C185.036 100.593 185.176 100.08 185.176 99.52L187.696 97.28C187.416 97.1867 187.136 97 186.856 96.72L186.716 95.74C186.716 95.46 186.576 95.18 186.296 94.9C185.923 94.62 185.736 94.34 185.736 94.06V93.36C185.736 93.1733 185.736 92.8933 185.736 92.52C185.736 92.0533 185.783 91.5867 185.876 91.12C185.969 91.0267 186.016 90.8867 186.016 90.7C186.016 90.5133 186.063 90.28 186.156 90L185.736 88.6C185.923 88.4133 186.063 88.1333 186.156 87.76C186.343 87.2933 186.529 86.8267 186.716 86.36V86.08C186.716 85.8933 186.623 85.4267 186.436 84.68V84.54C186.436 84.3533 186.436 84.1667 186.436 83.98C186.529 83.7 186.576 83.3733 186.576 83L186.716 81.46C186.809 80.4333 186.856 79.6867 186.856 79.22C186.949 78.7533 186.996 78.6133 186.996 78.8C186.996 77.5867 186.949 77.0267 186.856 77.12C186.949 76.9333 187.043 76.7467 187.136 76.56C187.229 76.3733 187.323 76.0933 187.416 75.72L187.556 73.9C187.836 73.62 188.116 73.06 188.396 72.22C188.209 71.7533 188.023 71.0533 187.836 70.12C187.836 70.0267 187.976 69.84 188.256 69.56C188.536 69.28 188.676 69.0933 188.676 69L187.976 68.16V67.46C187.883 66.9 187.929 66.34 188.116 65.78C188.489 65.5933 188.723 65.3133 188.816 64.94V64.52C188.816 64.24 188.816 63.8667 188.816 63.4C188.816 62.9333 188.769 62.3733 188.676 61.72L188.396 60.88C188.303 60.4133 188.396 60.04 188.676 59.76L189.516 59.2C189.423 59.0133 189.376 58.7333 189.376 58.36C189.376 57.8933 189.376 57.4267 189.376 56.96C189.376 56.7733 189.423 56.5867 189.516 56.4C189.609 56.2133 189.703 55.9333 189.796 55.56L190.076 54.44C190.076 54.44 189.983 54.2533 189.796 53.88C189.516 53.6 189.376 53.4133 189.376 53.32C189.376 52.6667 189.563 52.1067 189.936 51.64C190.309 51.1733 190.496 50.7067 190.496 50.24L189.796 48.98C189.796 48.7933 189.796 48.6067 189.796 48.42C189.796 48.2333 189.843 48 189.936 47.72C190.029 47.5333 190.123 47.3467 190.216 47.16C190.309 46.9733 190.403 46.6933 190.496 46.32L190.216 42.96C190.216 42.2133 190.496 41.7933 191.056 41.7C191.523 41.7 191.943 41.84 192.316 42.12C192.689 42.4933 192.923 42.68 193.016 42.68L196.656 41.42L197.776 41.56L198.756 41.84L199.456 41.56C199.829 41.3733 200.016 41.28 200.016 41.28H202.116C202.116 41.3733 202.256 41.4667 202.536 41.56C202.816 41.6533 203.049 41.7 203.236 41.7L205.196 41.28C205.383 41.0933 205.616 41.0933 205.896 41.28L206.456 41.42C206.643 41.42 207.109 41.1867 207.856 40.72L208.556 40.86L208.696 43.66C208.509 44.22 208.323 44.64 208.136 44.92C207.949 45.2933 207.856 45.5733 207.856 45.76V46.32C207.483 46.4133 207.296 46.8333 207.296 47.58L206.736 47.72C206.176 47.0667 205.663 46.6467 205.196 46.46V46.74C205.196 46.9267 205.383 47.2533 205.756 47.72C206.129 48.1867 206.316 48.56 206.316 48.84L206.176 48.98C205.989 49.1667 205.896 49.4467 205.896 49.82L207.576 49.68C207.576 49.4933 207.576 49.3067 207.576 49.12C207.669 48.84 207.763 48.5133 207.856 48.14H208.276C208.463 48.5133 208.883 49.0733 209.536 49.82L209.676 50.66C209.769 50.7533 209.863 50.8467 209.956 50.94C210.049 51.0333 210.143 51.1733 210.236 51.36C210.236 51.4533 210.143 51.5933 209.956 51.78C209.769 52.1533 209.676 52.3867 209.676 52.48C209.676 52.48 210.049 52.9933 210.796 54.02C211.449 54.9533 211.776 55.5133 211.776 55.7C211.776 55.98 211.496 56.26 210.936 56.54L209.956 57.1V57.38L211.496 58.08C211.589 58.36 211.729 58.8733 211.916 59.62C212.103 59.7133 212.383 60.04 212.756 60.6L212.336 61.58C212.056 62.2333 211.916 62.6067 211.916 62.7L213.596 64.94L212.896 65.92C212.989 66.0133 213.316 66.2467 213.876 66.62V68.16C214.063 68.44 214.203 68.86 214.296 69.42V69.7C214.296 70.26 214.156 70.82 213.876 71.38L214.856 71.94L215.696 74.74L215.276 75.86C215.463 76.0467 215.603 76.28 215.696 76.56V77.26C215.696 77.9133 216.116 78.52 216.956 79.08L215.416 80.62C214.669 81.3667 214.296 81.88 214.296 82.16C214.296 82.6267 214.949 82.9533 216.256 83.14C217.563 83.3267 218.263 83.7933 218.356 84.54C218.356 84.82 218.216 85.1 217.936 85.38C218.216 86.3133 218.356 87.06 218.356 87.62C218.356 87.62 218.263 87.76 218.076 88.04C217.983 88.32 217.936 88.5067 217.936 88.6L219.196 91.12C219.196 91.3067 219.056 91.6333 218.776 92.1L219.616 92.94C219.616 93.5 219.663 93.9667 219.756 94.34C219.943 94.5267 220.176 94.8067 220.456 95.18C220.736 95.5533 220.876 96.0667 220.876 96.72C220.969 96.8133 220.876 97.14 220.596 97.7C220.316 98.3533 220.176 98.7733 220.176 98.96C220.176 99.0533 220.503 99.5667 221.156 100.5C221.156 100.593 221.156 100.78 221.156 101.06C221.249 101.247 221.343 101.48 221.436 101.76C221.623 101.853 221.809 102.04 221.996 102.32C222.183 102.507 222.369 102.74 222.556 103.02C222.556 103.393 222.369 103.627 221.996 103.72L221.156 104.14V105.26C221.343 105.353 221.529 105.447 221.716 105.54C221.996 105.633 222.323 105.773 222.696 105.96C222.883 106.147 222.976 106.753 222.976 107.78L222.696 108.2C222.696 108.853 222.976 109.413 223.536 109.88L224.656 110.3L223.956 111.28C224.049 111.373 224.143 111.467 224.236 111.56C224.329 111.653 224.423 111.793 224.516 111.98V112.82H223.536C223.443 112.913 223.396 112.96 223.396 112.96C223.489 112.96 223.489 113.007 223.396 113.1L223.116 113.38C223.676 113.847 224.283 114.5 224.936 115.34L225.636 118V119.96C226.009 120.52 226.336 121.36 226.616 122.48L226.476 122.9C225.636 123.46 224.843 123.74 224.096 123.74L222.976 123.32L221.156 123.6C220.689 123.693 220.316 123.787 220.036 123.88C219.756 123.973 219.569 124.02 219.476 124.02L218.776 123.88C218.496 123.787 218.309 123.787 218.216 123.88C218.123 123.88 218.029 123.88 217.936 123.88C217.749 123.973 217.469 124.067 217.096 124.16C216.816 124.253 216.489 124.3 216.116 124.3H214.576C214.389 124.3 214.156 124.347 213.876 124.44C213.689 124.627 213.363 124.813 212.896 125C212.056 125 211.589 124.393 211.496 123.18C211.496 123.087 211.869 122.387 212.616 121.08C212.989 120.427 213.269 119.913 213.456 119.54C213.643 119.167 213.783 118.887 213.876 118.7L212.616 119.12C211.963 119.4 211.449 119.54 211.076 119.54H210.936L210.516 117.16L209.816 115.62C209.816 114.967 210.189 114.36 210.936 113.8C210.843 113.8 210.609 113.567 210.236 113.1C209.863 112.727 209.629 112.307 209.536 111.84C209.443 111.653 209.303 111.093 209.116 110.16L208.696 109.74V108.76L208.976 108.2C208.416 107.173 207.529 106.66 206.316 106.66C206.316 106.66 206.083 106.753 205.616 106.94L204.776 106.8C204.496 106.707 204.216 106.66 203.936 106.66L202.256 106.94C201.696 107.033 201.276 107.127 200.996 107.22C200.809 107.313 200.669 107.36 200.576 107.36C200.483 107.453 200.249 107.407 199.876 107.22C199.503 107.033 199.269 106.94 199.176 106.94L198.616 107.22C198.056 107.407 197.729 107.5 197.636 107.5L197.496 107.92C197.589 107.92 197.683 107.967 197.776 108.06C197.869 108.06 198.009 108.107 198.196 108.2V108.76L197.496 108.48C197.216 108.76 197.076 108.993 197.076 109.18C197.449 109.46 197.776 109.927 198.056 110.58L197.636 111.7C197.543 112.073 197.449 112.447 197.356 112.82C197.263 113.1 197.169 113.333 197.076 113.52C197.169 113.8 197.216 114.453 197.216 115.48C196.656 117.813 196.376 118.887 196.376 118.7C196.376 118.793 196.423 118.98 196.516 119.26C196.609 119.447 196.703 119.727 196.796 120.1L197.076 121.5C197.076 121.5 196.936 121.733 196.656 122.2C196.376 122.573 196.236 122.9 196.236 123.18V123.46C196.236 123.833 196.376 124.3 196.656 124.86V125.14C196.656 125.607 196.189 125.84 195.256 125.84C195.256 125.84 194.883 125.793 194.136 125.7L192.876 125.42C192.689 125.513 192.456 125.607 192.176 125.7C191.896 125.793 191.569 125.84 191.196 125.84H190.076L185.316 126.68C185.036 126.773 184.756 126.82 184.476 126.82C184.196 126.82 183.963 126.82 183.776 126.82ZM202.676 46.04C202.769 45.8533 202.723 45.6667 202.536 45.48C202.443 45.3867 202.209 45.4333 201.836 45.62C202.023 45.9 202.303 46.04 202.676 46.04ZM209.396 60.6C210.049 60.6 210.469 60.3667 210.656 59.9C210.563 59.9933 210.469 59.7133 210.376 59.06L209.536 59.2C209.256 59.2 209.023 59.34 208.836 59.62C208.743 59.7133 208.789 59.9467 208.976 60.32C209.163 60.5067 209.303 60.6 209.396 60.6ZM193.016 71.38C193.016 71.2867 192.876 71.1 192.596 70.82L192.316 71.1C192.409 71.1933 192.503 71.24 192.596 71.24C192.783 71.24 192.923 71.2867 193.016 71.38ZM202.816 94.34L204.776 93.64C205.056 93.5467 205.383 93.22 205.756 92.66L205.476 88.6C204.729 88.1333 204.449 86.78 204.636 84.54L204.216 84.12L203.656 81.6C203.656 81.6933 203.796 81.32 204.076 80.48L203.236 79.78L204.496 79.22L203.376 78.66C203.376 78.1933 203.236 77.6333 202.956 76.98C202.769 76.5133 202.629 76.14 202.536 75.86C202.443 75.4867 202.349 75.16 202.256 74.88C202.256 73.76 202.536 72.92 203.096 72.36L201.836 72.08L200.576 72.5V72.78C200.576 73.1533 200.296 73.48 199.736 73.76C199.736 74.5067 199.549 74.9267 199.176 75.02C199.176 75.3933 199.176 75.8133 199.176 76.28C199.269 76.7467 199.363 77.3067 199.456 77.96C199.456 78.0533 199.316 78.3333 199.036 78.8L199.176 79.5C199.176 79.5933 199.176 79.7333 199.176 79.92C199.269 80.0133 199.316 80.1533 199.316 80.34C199.316 80.62 199.269 80.9 199.176 81.18C199.176 81.46 199.176 81.7867 199.176 82.16C199.083 82.72 199.036 83.2333 199.036 83.7C199.036 84.0733 199.036 84.4 199.036 84.68L199.176 86.92C199.083 87.5733 198.663 88.1333 197.916 88.6L196.236 89.72C195.863 90 195.583 90.28 195.396 90.56C195.209 90.7467 195.069 90.9333 194.976 91.12H196.376C196.469 91.0267 196.656 90.8867 196.936 90.7C197.309 90.42 197.543 90.28 197.636 90.28H197.776C198.149 90.28 198.429 90.6533 198.616 91.4C198.709 92.4267 198.849 93.0333 199.036 93.22C201.463 93.9667 202.723 94.34 202.816 94.34ZM193.296 73.48C193.389 73.2933 193.343 73.1067 193.156 72.92C193.063 72.92 192.829 73.0133 192.456 73.2C192.643 73.48 192.923 73.5733 193.296 73.48ZM191.476 88.46L193.016 88.32V87.62L192.596 87.06C192.596 87.06 192.316 87.1533 191.756 87.34L190.356 87.06C190.543 87.2467 190.309 87.4333 189.656 87.62C189.003 87.7133 188.863 87.8533 189.236 88.04H190.076C190.543 88.32 191.009 88.46 191.476 88.46ZM215.136 99.1L215.416 98.96C215.509 98.96 215.556 98.96 215.556 98.96C215.556 98.8667 215.603 98.82 215.696 98.82L215.416 98.4C215.416 98.68 215.323 98.9133 215.136 99.1ZM215.416 103.16C215.323 102.973 215.276 102.647 215.276 102.18C215.649 102.087 215.976 101.76 216.256 101.2C216.069 101.2 215.789 101.2 215.416 101.2C215.136 101.107 214.763 101.013 214.296 100.92C213.923 101.667 213.643 102.087 213.456 102.18C213.363 102.273 213.316 102.413 213.316 102.6V103.02L214.296 102.32L214.576 102.6L214.716 103.16H215.416ZM210.096 104C210.283 104 210.469 103.907 210.656 103.72C210.843 103.533 210.796 103.347 210.516 103.16C210.236 103.16 210.096 103.44 210.096 104ZM217.516 112.12C217.516 111.933 217.423 111.747 217.236 111.56C217.049 111.373 216.863 111.467 216.676 111.84C216.676 112.12 216.956 112.213 217.516 112.12ZM185.596 121.08L186.716 120.66C187.556 120.38 187.696 120.053 187.136 119.68H186.716C186.343 119.68 185.969 119.867 185.596 120.24V121.08ZM188.536 123.88C188.629 123.693 188.583 123.507 188.396 123.32C188.303 123.227 188.069 123.273 187.696 123.46C187.883 123.74 188.163 123.88 188.536 123.88Z" fill="#4D402B"/>
</svg>
