<svg width="65" height="63" viewBox="0 0 65 63" fill="none" xmlns="http://www.w3.org/2000/svg">
<ellipse cx="32.2031" cy="31.5" rx="32.2031" ry="31.5" fill="#CDD8AC"/>
<path d="M32 16C29.8783 16 27.8434 16.8429 26.3431 18.3431C24.8429 19.8434 24 21.8783 24 24C24 26.1217 24.8429 28.1566 26.3431 29.6569C27.8434 31.1571 29.8783 32 32 32C34.1217 32 36.1566 31.1571 37.6569 29.6569C39.1571 28.1566 40 26.1217 40 24C40 21.8783 39.1571 19.8434 37.6569 18.3431C36.1566 16.8429 34.1217 16 32 16ZM22.018 34C21.4912 33.9976 20.9691 34.0993 20.4817 34.2993C19.9944 34.4993 19.5513 34.7935 19.1779 35.1652C18.8046 35.5369 18.5083 35.9786 18.3062 36.4651C18.1041 36.9516 18 37.4732 18 38C18 41.382 19.666 43.932 22.27 45.594C24.834 47.228 28.29 48 32 48C35.71 48 39.166 47.228 41.73 45.594C44.334 43.934 46 41.38 46 38C46 36.9391 45.5786 35.9217 44.8284 35.1716C44.0783 34.4214 43.0609 34 42 34H22.018Z" fill="#4D402B"/>
</svg>
