<svg width="65" height="63" viewBox="0 0 65 63" fill="none" xmlns="http://www.w3.org/2000/svg">
<ellipse cx="32.2031" cy="31.5" rx="32.2031" ry="31.5" fill="#CDD8AC"/>
<path d="M40.7753 38.9674V45.3731C38.4024 46.4931 35.3896 47.1431 31.9996 47.1431C23.7282 47.1431 17.7139 43.476 17.7139 38.1646V37.1431C17.7139 36.0065 18.1654 34.9164 18.9691 34.1127C19.7729 33.309 20.8629 32.8574 21.9996 32.8574H37.5096C37.5091 34.066 37.8069 35.2559 38.3765 36.3218C38.9462 37.3876 39.7702 38.2964 40.7753 38.9674ZM31.9996 12.8574C33.1252 12.8574 34.2398 13.0791 35.2797 13.5099C36.3197 13.9406 37.2646 14.572 38.0605 15.3679C38.8564 16.1639 39.4878 17.1088 39.9185 18.1487C40.3493 19.1886 40.571 20.3032 40.571 21.4289C40.571 22.5545 40.3493 23.6691 39.9185 24.709C39.4878 25.7489 38.8564 26.6938 38.0605 27.4898C37.2646 28.2857 36.3197 28.9171 35.2797 29.3478C34.2398 29.7786 33.1252 30.0003 31.9996 30.0003C29.7263 30.0003 27.5461 29.0972 25.9387 27.4898C24.3312 25.8823 23.4282 23.7021 23.4282 21.4289C23.4282 19.1556 24.3312 16.9754 25.9387 15.3679C27.5461 13.7605 29.7263 12.8574 31.9996 12.8574ZM46.4896 38.3346C47.8019 37.9394 48.9286 37.0859 49.6644 35.9295C50.4002 34.7732 50.6962 33.3911 50.4983 32.0349C50.3004 30.6786 49.6219 29.4386 48.5864 28.5408C47.5509 27.6429 46.2273 27.1469 44.8567 27.1431C43.5588 27.1426 42.2994 27.5839 41.2857 28.3944C40.272 29.2049 39.5644 30.3364 39.2794 31.6026C38.9944 32.8689 39.1489 34.1944 39.7176 35.3611C40.2863 36.5278 41.2352 37.4661 42.4081 38.0217V47.5746C42.4081 47.7903 42.4939 47.9989 42.6467 48.1517L44.2539 49.7589C44.5824 50.0874 45.1182 50.076 45.4324 49.7346L48.4096 46.4946C48.5522 46.3398 48.6293 46.1358 48.6247 45.9254C48.6202 45.715 48.5344 45.5145 48.3853 45.366L46.4896 43.4703L48.361 41.5989C48.4372 41.5232 48.4977 41.4331 48.539 41.334C48.5803 41.2348 48.6016 41.1284 48.6016 41.021C48.6016 40.9136 48.5803 40.8072 48.539 40.708C48.4977 40.6089 48.4372 40.5188 48.361 40.4431L46.4896 38.5717V38.3346ZM46.2853 31.4289C46.2853 31.8077 46.1348 32.1711 45.8669 32.439C45.599 32.7069 45.2356 32.8574 44.8567 32.8574C44.4778 32.8574 44.1145 32.7069 43.8466 32.439C43.5787 32.1711 43.4282 31.8077 43.4282 31.4289C43.4282 31.05 43.5787 30.6866 43.8466 30.4187C44.1145 30.1508 44.4778 30.0003 44.8567 30.0003C45.2356 30.0003 45.599 30.1508 45.8669 30.4187C46.1348 30.6866 46.2853 31.05 46.2853 31.4289Z" fill="#4D402B"/>
</svg>
